<?xml version="1.0" encoding="UTF-8"?>
<svg xmlns="http://www.w3.org/2000/svg" xmlns:xlink="http://www.w3.org/1999/xlink" width="50px" height="50px" viewBox="0 0 50 50" version="1.1">
<g id="surface1">
<path style=" stroke:none;fill-rule:evenodd;fill:rgb(0%,0%,0%);fill-opacity:1;" d="M 14.582031 4.167969 C 13.433594 4.167969 12.5 5.097656 12.5 6.25 L 12.5 8.335938 C 10.496094 8.363281 9.707031 8.605469 8.914062 9.027344 C 8.074219 9.472656 7.390625 10.160156 6.945312 10.996094 C 6.492188 11.847656 6.25 12.6875 6.25 15.011719 L 6.25 37.074219 C 6.25 39.394531 6.492188 40.238281 6.945312 41.085938 C 7.398438 41.933594 8.066406 42.601562 8.914062 43.054688 C 9.761719 43.507812 10.605469 43.75 12.925781 43.75 L 37.074219 43.75 C 39.394531 43.75 40.238281 43.507812 41.085938 43.054688 C 41.933594 42.601562 42.601562 41.933594 43.054688 41.085938 C 43.507812 40.238281 43.75 39.394531 43.75 37.074219 L 43.75 15.011719 C 43.75 12.6875 43.507812 11.847656 43.054688 10.996094 C 42.609375 10.160156 41.925781 9.472656 41.085938 9.027344 C 40.292969 8.605469 39.503906 8.363281 37.5 8.332031 L 37.5 6.25 C 37.5 5.097656 36.566406 4.167969 35.417969 4.167969 C 34.265625 4.167969 33.332031 5.097656 33.332031 6.25 L 33.332031 8.332031 L 16.667969 8.332031 L 16.667969 6.25 C 16.667969 5.097656 15.734375 4.167969 14.582031 4.167969 Z M 10.417969 18.75 L 10.417969 37.074219 C 10.417969 37.960938 10.457031 38.519531 10.519531 38.839844 C 10.542969 38.964844 10.554688 38.996094 10.621094 39.121094 C 11.003906 39.445312 11.03125 39.457031 11.160156 39.480469 C 11.480469 39.542969 12.039062 39.582031 12.925781 39.582031 L 37.074219 39.582031 C 37.960938 39.582031 38.519531 39.542969 38.839844 39.480469 C 39.542969 38.519531 39.582031 37.960938 39.582031 37.074219 L 39.589844 18.75 Z M 28.644531 27.082031 C 27.78125 27.082031 27.082031 27.78125 27.082031 28.644531 L 27.082031 33.855469 C 27.082031 34.714844 27.785156 35.417969 28.644531 35.417969 L 33.855469 35.417969 C 34.71875 35.417969 35.417969 34.71875 35.417969 33.855469 L 35.417969 28.644531 C 35.417969 27.78125 34.71875 27.082031 33.855469 27.082031 Z M 28.644531 27.082031 "/>
</g>
</svg>
