<?xml version="1.0" encoding="UTF-8"?>
<svg xmlns="http://www.w3.org/2000/svg" xmlns:xlink="http://www.w3.org/1999/xlink" width="50px" height="50px" viewBox="0 0 50 50" version="1.1">
<g id="surface1">
<path style="fill:none;stroke-width:2;stroke-linecap:round;stroke-linejoin:round;stroke:rgb(0%,0%,0%);stroke-opacity:1;stroke-miterlimit:4;" d="M 3 4.599375 C 3 4.040625 3 3.759375 3.10875 3.545625 C 3.204375 3.358125 3.358125 3.204375 3.545625 3.10875 C 3.759375 3 4.040625 3 4.599375 3 L 19.400625 3 C 19.959375 3 20.240625 3 20.454375 3.10875 C 20.641875 3.204375 20.795625 3.358125 20.89125 3.545625 C 21 3.759375 21 4.040625 21 4.599375 L 21 6.3375 C 21 6.58125 21 6.705 20.971875 6.819375 C 20.9475 6.920625 20.908125 7.018125 20.851875 7.108125 C 20.79 7.209375 20.70375 7.295625 20.53125 7.468125 L 14.469375 13.531875 C 14.295 13.704375 14.20875 13.790625 14.146875 13.891875 C 14.0925 13.981875 14.05125 14.079375 14.026875 14.180625 C 14.000625 14.295 14.000625 14.41875 14.000625 14.6625 L 14.000625 17.000625 L 9.999375 21 L 9.999375 14.6625 C 9.999375 14.41875 9.999375 14.295 9.973125 14.180625 C 9.94875 14.079375 9.9075 13.981875 9.853125 13.891875 C 9.79125 13.790625 9.705 13.704375 9.530625 13.531875 L 3.46875 7.468125 C 3.29625 7.295625 3.21 7.209375 3.148125 7.108125 C 3.091875 7.018125 3.0525 6.920625 3.028125 6.819375 C 3 6.705 3 6.58125 3 6.3375 Z M 3 4.599375 " transform="matrix(2.083333,0,0,2.083333,0,0)"/>
</g>
</svg>
