<?xml version="1.0" encoding="UTF-8"?>
<svg xmlns="http://www.w3.org/2000/svg" xmlns:xlink="http://www.w3.org/1999/xlink" width="50px" height="50px" viewBox="0 0 50 50" version="1.1">
<g id="surface1">
<path style=" stroke:none;fill-rule:nonzero;fill:rgb(0%,0%,0%);fill-opacity:1;" d="M 20.125 17.773438 C 20.738281 17.164062 20.738281 16.171875 20.128906 15.5625 C 19.519531 14.953125 18.53125 14.953125 17.917969 15.5625 Z M 9.3125 24.152344 C 8.703125 24.761719 8.703125 25.75 9.3125 26.363281 C 9.921875 26.972656 10.910156 26.972656 11.519531 26.363281 Z M 11.484375 24.117188 C 10.855469 23.527344 9.867188 23.558594 9.277344 24.1875 C 8.6875 24.820312 8.71875 25.808594 9.347656 26.398438 Z M 17.953125 34.472656 C 18.582031 35.0625 19.570312 35.03125 20.164062 34.402344 C 20.753906 33.773438 20.722656 32.785156 20.09375 32.195312 Z M 10.417969 23.695312 C 9.554688 23.695312 8.855469 24.394531 8.855469 25.257812 C 8.855469 26.121094 9.554688 26.820312 10.417969 26.820312 Z M 32.019531 25.257812 L 32.019531 26.820312 L 32.027344 26.820312 Z M 37.359375 27.453125 L 38.460938 26.34375 Z M 38.019531 32.78125 C 38.023438 33.644531 38.726562 34.34375 39.585938 34.339844 C 40.449219 34.335938 41.148438 33.636719 41.144531 32.773438 Z M 17.917969 15.5625 L 9.3125 24.152344 L 11.519531 26.363281 L 20.125 17.773438 Z M 9.347656 26.398438 L 17.953125 34.472656 L 20.09375 32.195312 L 11.484375 24.117188 Z M 10.417969 26.820312 L 32.019531 26.820312 L 32.019531 23.695312 L 10.417969 23.695312 Z M 32.027344 26.820312 C 33.609375 26.816406 35.132812 27.441406 36.257812 28.558594 L 38.460938 26.34375 C 36.75 24.640625 34.429688 23.6875 32.015625 23.695312 Z M 36.257812 28.558594 C 37.382812 29.675781 38.015625 31.195312 38.019531 32.78125 L 41.144531 32.773438 C 41.140625 30.359375 40.171875 28.046875 38.460938 26.34375 Z M 36.257812 28.558594 "/>
</g>
</svg>
