<?xml version="1.0" encoding="UTF-8"?>
<svg xmlns="http://www.w3.org/2000/svg" xmlns:xlink="http://www.w3.org/1999/xlink" width="50px" height="50px" viewBox="0 0 50 50" version="1.1">
<g id="surface1">
<path style=" stroke:none;fill-rule:nonzero;fill:rgb(0%,0%,0%);fill-opacity:1;" d="M 43.914062 31.164062 L 42.585938 31.164062 C 42.480469 31.132812 42.382812 31.085938 42.273438 31.0625 C 39.480469 30.632812 37.273438 28.3125 37.089844 25.585938 C 36.875 22.539062 38.613281 19.960938 41.445312 19.121094 C 41.816406 19.015625 42.207031 18.9375 42.585938 18.839844 L 43.914062 18.839844 C 44 18.867188 44.078125 18.917969 44.179688 18.925781 C 46.757812 19.347656 48.71875 21.203125 49.273438 23.742188 C 49.3125 23.9375 49.375 24.132812 49.421875 24.328125 L 49.421875 25.65625 C 49.390625 25.742188 49.34375 25.832031 49.335938 25.917969 C 48.925781 28.457031 47.117188 30.390625 44.609375 30.976562 C 44.363281 31.039062 44.140625 31.105469 43.914062 31.164062 Z M 6.375 18.835938 L 7.703125 18.835938 C 7.8125 18.867188 7.910156 18.914062 8.015625 18.925781 C 10.828125 19.363281 13.027344 21.699219 13.203125 24.453125 C 13.398438 27.488281 11.640625 30.058594 8.796875 30.886719 C 8.4375 30.996094 8.066406 31.074219 7.703125 31.160156 L 6.375 31.160156 C 6.289062 31.132812 6.210938 31.082031 6.125 31.0625 C 3.585938 30.59375 1.921875 29.117188 1.132812 26.65625 C 1.023438 26.335938 0.96875 25.992188 0.878906 25.664062 L 0.878906 24.335938 C 0.910156 24.246094 0.957031 24.15625 0.96875 24.070312 C 1.386719 21.523438 3.183594 19.597656 5.695312 19.011719 C 5.929688 18.953125 6.152344 18.894531 6.375 18.835938 Z M 24.484375 18.835938 L 25.8125 18.835938 C 25.917969 18.867188 26.015625 18.914062 26.125 18.9375 C 28.925781 19.375 31.183594 21.796875 31.300781 24.53125 C 31.4375 27.609375 29.582031 30.214844 26.71875 30.945312 C 26.417969 31.023438 26.117188 31.09375 25.8125 31.160156 L 24.484375 31.160156 C 24.375 31.132812 24.28125 31.082031 24.171875 31.0625 C 21.367188 30.632812 19.113281 28.203125 18.984375 25.46875 C 18.839844 22.390625 20.703125 19.785156 23.566406 19.050781 C 23.878906 18.972656 24.179688 18.90625 24.484375 18.835938 Z M 24.484375 18.835938 "/>
</g>
</svg>
