<?xml version="1.0" encoding="UTF-8"?>
<svg xmlns="http://www.w3.org/2000/svg" xmlns:xlink="http://www.w3.org/1999/xlink" width="50px" height="50px" viewBox="0 0 50 50" version="1.1">
<g id="surface1">
<path style=" stroke:none;fill-rule:nonzero;fill:rgb(0%,0%,0%);fill-opacity:1;" d="M 8.332031 8.332031 L 20.832031 8.332031 L 20.832031 20.832031 L 8.332031 20.832031 L 8.332031 8.332031 M 41.667969 8.332031 L 41.667969 20.832031 L 29.167969 20.832031 L 29.167969 8.332031 L 41.667969 8.332031 M 29.167969 31.25 L 33.332031 31.25 L 33.332031 27.082031 L 29.167969 27.082031 L 29.167969 22.917969 L 33.332031 22.917969 L 33.332031 27.082031 L 37.5 27.082031 L 37.5 22.917969 L 41.667969 22.917969 L 41.667969 27.082031 L 37.5 27.082031 L 37.5 31.25 L 41.667969 31.25 L 41.667969 37.5 L 37.5 37.5 L 37.5 41.667969 L 33.332031 41.667969 L 33.332031 37.5 L 27.082031 37.5 L 27.082031 41.667969 L 22.917969 41.667969 L 22.917969 33.332031 L 29.167969 33.332031 L 29.167969 31.25 M 33.332031 31.25 L 33.332031 37.5 L 37.5 37.5 L 37.5 31.25 L 33.332031 31.25 M 8.332031 41.667969 L 8.332031 29.167969 L 20.832031 29.167969 L 20.832031 41.667969 L 8.332031 41.667969 M 12.5 12.5 L 12.5 16.667969 L 16.667969 16.667969 L 16.667969 12.5 L 12.5 12.5 M 33.332031 12.5 L 33.332031 16.667969 L 37.5 16.667969 L 37.5 12.5 L 33.332031 12.5 M 12.5 33.332031 L 12.5 37.5 L 16.667969 37.5 L 16.667969 33.332031 L 12.5 33.332031 M 8.332031 22.917969 L 12.5 22.917969 L 12.5 27.082031 L 8.332031 27.082031 L 8.332031 22.917969 M 18.75 22.917969 L 27.082031 22.917969 L 27.082031 31.25 L 22.917969 31.25 L 22.917969 27.082031 L 18.75 27.082031 L 18.75 22.917969 M 22.917969 12.5 L 27.082031 12.5 L 27.082031 20.832031 L 22.917969 20.832031 L 22.917969 12.5 M 4.167969 4.167969 L 4.167969 12.5 L 0 12.5 L 0 4.167969 C 0 1.867188 1.867188 0 4.167969 0 L 12.5 0 L 12.5 4.167969 L 4.167969 4.167969 M 45.832031 0 C 48.132812 0 50 1.867188 50 4.167969 L 50 12.5 L 45.832031 12.5 L 45.832031 4.167969 L 37.5 4.167969 L 37.5 0 L 45.832031 0 M 4.167969 37.5 L 4.167969 45.832031 L 12.5 45.832031 L 12.5 50 L 4.167969 50 C 1.867188 50 0 48.132812 0 45.832031 L 0 37.5 L 4.167969 37.5 M 45.832031 45.832031 L 45.832031 37.5 L 50 37.5 L 50 45.832031 C 50 48.132812 48.132812 50 45.832031 50 L 37.5 50 L 37.5 45.832031 Z M 45.832031 45.832031 "/>
</g>
</svg>
